HIERARCHY
ROOT hip
{
  OFFSET 0 0 0
  CHANNELS 6 Xposition Yposition Zposition Zrotation Yrotation Xrotation
  JOINT abdomen
  {
    OFFSET 0 20.6881 -0.73152
    CHANNELS 3 Zrotation Xrotation Yrotation
    JOINT chest
    {
      OFFSET 0 11.7043 -0.48768
      CHANNELS 3 Zrotation Xrotation Yrotation
      JOINT neck
      {
        OFFSET 0 22.1894 -2.19456
        CHANNELS 3 Zrotation Xrotation Yrotation
        JOINT head
        {
          OFFSET -0.24384 7.07133 1.2192
          CHANNELS 3 Zrotation Xrotation Yrotation
          JOINT leftEye
          {
            OFFSET 4.14528 8.04674 8.04672
            CHANNELS 3 Zrotation Xrotation Yrotation
            End Site
            {
              OFFSET 1 0 0
            }
          }
          JOINT rightEye
          {
            OFFSET -3.6576 8.04674 8.04672
            CHANNELS 3 Zrotation Xrotation Yrotation
            End Site
            {
              OFFSET 1 0 0
            }
          }
        }
      }
      JOINT rCollar
      {
        OFFSET -2.68224 19.2634 -4.8768
        CHANNELS 3 Zrotation Xrotation Yrotation
        JOINT rShldr
        {
          OFFSET -8.77824 -1.95073 1.46304
          CHANNELS 3 Zrotation Xrotation Yrotation
          JOINT rForeArm
          {
            OFFSET -28.1742 -1.7115 0.48768
            CHANNELS 3 Zrotation Xrotation Yrotation
            JOINT rHand
            {
              OFFSET -22.5879 0.773209 7.07136
              CHANNELS 3 Zrotation Xrotation Yrotation
              JOINT rThumb1
              {
                OFFSET -1.2192 -0.487915 3.41376
                CHANNELS 3 Zrotation Xrotation Yrotation
                JOINT rThumb2
                {
                  OFFSET -3.37035 -0.52449 3.41376
                  CHANNELS 3 Zrotation Xrotation Yrotation
                  End Site
                  {
                    OFFSET -1.78271 -1.18214 1.43049
                  }
                }
              }
              JOINT rIndex1
              {
                OFFSET -7.75947 0.938293 5.60832
                CHANNELS 3 Zrotation Xrotation Yrotation
                JOINT rIndex2
                {
                  OFFSET -2.54057 -0.884171 1.56538
                  CHANNELS 3 Zrotation Xrotation Yrotation
                  End Site
                  {
                    OFFSET -1.62519 -0.234802 1.16502
                  }
                }
              }
              JOINT rMid1
              {
                OFFSET -8.24714 1.18213 3.41376
                CHANNELS 3 Zrotation Xrotation Yrotation
                JOINT rMid2
                {
                  OFFSET -3.10165 -0.590103 1.0647
                  CHANNELS 3 Zrotation Xrotation Yrotation
                  End Site
                  {
                    OFFSET -2.48547 -0.328903 0.83742
                  }
                }
              }
              JOINT rRing1
              {
                OFFSET -8.82822 0.546677 1.51678
                CHANNELS 3 Zrotation Xrotation Yrotation
                JOINT rRing2
                {
                  OFFSET -2.60934 -0.819778 -0.0198488
                  CHANNELS 3 Zrotation Xrotation Yrotation
                  End Site
                  {
                    OFFSET -2.33842 -0.294052 0.168128
                  }
                }
              }
              JOINT rPinky1
              {
                OFFSET -8.27202 -0.0477905 -0.4584
                CHANNELS 3 Zrotation Xrotation Yrotation
                JOINT rPinky2
                {
                  OFFSET -1.82734 -0.647385 -0.700984
                  CHANNELS 3 Zrotation Xrotation Yrotation
                  End Site
                  {
                    OFFSET -1.69225 -0.51767 -0.607171
                  }
                }
              }
            }
          }
        }
      }
      JOINT lCollar
      {
        OFFSET 2.68224 19.2634 -4.8768
        CHANNELS 3 Zrotation Xrotation Yrotation
        JOINT lShldr
        {
          OFFSET 8.77824 -1.95073 1.46304
          CHANNELS 3 Zrotation Xrotation Yrotation
          JOINT lForeArm
          {
            OFFSET 28.1742 -1.7115 0.48768
            CHANNELS 3 Zrotation Xrotation Yrotation
            JOINT lHand
            {
              OFFSET 22.5879 0.773209 7.07136
              CHANNELS 3 Zrotation Xrotation Yrotation
              JOINT lThumb1
              {
                OFFSET 1.2192 -0.487915 3.41376
                CHANNELS 3 Zrotation Xrotation Yrotation
                JOINT lThumb2
                {
                  OFFSET 3.37035 -0.52449 3.41376
                  CHANNELS 3 Zrotation Xrotation Yrotation
                  End Site
                  {
                    OFFSET 1.78271 -1.18214 1.43049
                  }
                }
              }
              JOINT lIndex1
              {
                OFFSET 7.75947 0.938293 5.60832
                CHANNELS 3 Zrotation Xrotation Yrotation
                JOINT lIndex2
                {
                  OFFSET 2.54057 -0.884171 1.56538
                  CHANNELS 3 Zrotation Xrotation Yrotation
                  End Site
                  {
                    OFFSET 1.62519 -0.234802 1.16502
                  }
                }
              }
              JOINT lMid1
              {
                OFFSET 8.24714 1.18213 3.41376
                CHANNELS 3 Zrotation Xrotation Yrotation
                JOINT lMid2
                {
                  OFFSET 3.10165 -0.590103 1.0647
                  CHANNELS 3 Zrotation Xrotation Yrotation
                  End Site
                  {
                    OFFSET 2.48547 -0.328903 0.83742
                  }
                }
              }
              JOINT lRing1
              {
                OFFSET 8.82822 0.546677 1.51678
                CHANNELS 3 Zrotation Xrotation Yrotation
                JOINT lRing2
                {
                  OFFSET 2.60934 -0.819778 -0.0198488
                  CHANNELS 3 Zrotation Xrotation Yrotation
                  End Site
                  {
                    OFFSET 2.33842 -0.294052 0.168128
                  }
                }
              }
              JOINT lPinky1
              {
                OFFSET 8.27202 -0.0477905 -0.4584
                CHANNELS 3 Zrotation Xrotation Yrotation
                JOINT lPinky2
                {
                  OFFSET 1.82734 -0.647385 -0.700984
                  CHANNELS 3 Zrotation Xrotation Yrotation
                  End Site
                  {
                    OFFSET 1.69225 -0.51767 -0.607171
                  }
                }
              }
            }
          }
        }
      }
    }
  }
  JOINT rButtock
  {
    OFFSET -8.77824 4.35084 1.2192
    CHANNELS 3 Zrotation Xrotation Yrotation
    JOINT rThigh
    {
      OFFSET 0 -1.70687 -2.19456
      CHANNELS 3 Zrotation Xrotation Yrotation
      JOINT rShin
      {
        OFFSET 0 -36.8199 0.73152
        CHANNELS 3 Zrotation Xrotation Yrotation
        JOINT rFoot
        {
          OFFSET 0.73152 -45.1104 -5.12064
          CHANNELS 3 Zrotation Xrotation Yrotation
          End Site
          {
            OFFSET -1.1221 -3.69964 12.103
          }
        }
      }
    }
  }
  JOINT lButtock
  {
    OFFSET 8.77824 4.35084 1.2192
    CHANNELS 3 Zrotation Xrotation Yrotation
    JOINT lThigh
    {
      OFFSET 0 -1.70687 -2.19456
      CHANNELS 3 Zrotation Xrotation Yrotation
      JOINT lShin
      {
        OFFSET 0 -36.8199 0.73152
        CHANNELS 3 Zrotation Xrotation Yrotation
        JOINT lFoot
        {
          OFFSET -0.73152 -45.1104 -5.12064
          CHANNELS 3 Zrotation Xrotation Yrotation
          End Site
          {
            OFFSET 1.1221 -3.69964 12.103
          }
        }
      }
    }
  }
}
MOTION
Frames:	4
Frame Time:	0.00833333
2.74361 82.5294 169.794 175.142 1.5728 -166.771 -3.73552 6.80005 -2.02791 4.74558 -4.64311 -0.414713 -1.28325 -1.48717 -0.571815 0.241796 -5.76061 -0.393475 -0.0 0.0 0.0 -0.0 0.0 0.0 -3.61806e-14 4.64535e-13 -4.24735e-14 79.863 19.7191 -4.88946 -17.753 -10.424 33.4678 -0.0101093 -2.86966 -0.403644 -2.42744e-10 3.01085e-09 -1.40196e-09 -4.23799e-10 5.20352e-09 -2.42834e-09 -2.42736e-10 3.01085e-09 -1.40197e-09 7.73091 5.47488 0.417314 -2.42745e-10 3.01085e-09 -1.40196e-09 2.90554 0.965183 0.102902 -2.42737e-10 3.01085e-09 -1.40197e-09 10.2786 0.731801 0.0259123 -2.42745e-10 3.01085e-09 -1.40196e-09 2.22167 -0.733487 -0.20892 -3.63797e-14 4.64533e-13 -4.26413e-14 -82.3897 24.8727 -1.04575 12.9112 -6.10864 -23.3876 0.331804 16.17 -2.33551 -1.81967e-09 5.71904e-10 3.14636e-09 -3.10309e-09 1.01462e-09 5.46144e-09 -1.81968e-09 5.719e-10 3.14636e-09 -7.73091 5.47488 -0.417314 -1.81967e-09 5.71898e-10 3.14637e-09 -2.90554 0.965183 -0.102902 -1.81968e-09 5.71896e-10 3.14636e-09 -10.2786 0.731801 -0.0259123 -1.81967e-09 5.71899e-10 3.14636e-09 -2.22167 -0.733487 0.20892 -2.03217e-16 0.0 -3.88251e-19 -16.4708 -52.1377 -15.5781 -0.625494 49.8401 0.768366 -3.07822 -9.44627 -9.40529 2.03217e-16 0.0 3.88251e-19 -7.51297 -15.8833 -3.9499 0.20728 31.4631 -0.521554 3.52338 -17.0394 7.56198
2.74823 82.6437 169.354 175.143 1.7514 -166.657 -3.68286 6.73421 -2.03867 4.73261 -4.65546 -0.417588 -1.25718 -1.54203 -0.530792 0.254566 -5.77991 -0.324633 -0.0 0.0 0.0 -0.0 0.0 0.0 1.18446e-14 5.05708e-13 -4.2043e-14 79.8947 19.5575 -4.95505 -17.6059 -10.2692 33.1421 -0.00899093 -2.70628 -0.380629 -4.63613e-10 3.25716e-09 -1.59165e-09 -8.04867e-10 5.62899e-09 -2.75692e-09 -4.63604e-10 3.25716e-09 -1.59166e-09 7.73091 5.47488 0.417314 -4.63613e-10 3.25716e-09 -1.59165e-09 2.90554 0.965183 0.102902 -4.63605e-10 3.25716e-09 -1.59166e-09 10.2786 0.731801 0.0259123 -4.63613e-10 3.25716e-09 -1.59164e-09 2.22167 -0.733487 -0.20892 1.16127e-14 5.05706e-13 -4.2192e-14 -82.3624 24.2675 -1.02476 12.8317 -6.04923 -23.2316 0.338946 16.337 -2.361 -2.21379e-09 4.02967e-10 3.11338e-09 -3.78445e-09 7.24896e-10 5.41042e-09 -2.2138e-09 4.02965e-10 3.11339e-09 -7.73091 5.47488 -0.417314 -2.21379e-09 4.02962e-10 3.11339e-09 -2.90554 0.965183 -0.102902 -2.2138e-09 4.02961e-10 3.11338e-09 -10.2786 0.731801 -0.0259123 -2.21379e-09 4.02963e-10 3.11338e-09 -2.22167 -0.733487 0.20892 -2.03217e-16 0.0 -3.88251e-19 -16.0489 -52.3784 -15.1511 -0.572257 48.1201 0.67848 -2.76864 -8.90345 -8.75884 2.03217e-16 0.0 3.88251e-19 -7.48424 -15.4837 -3.9009 0.204084 30.9892 -0.500318 3.4788 -16.704 7.55408
2.75421 82.7563 168.908 175.141 1.8981 -166.534 -3.62927 6.66514 -2.07205 4.72448 -4.66708 -0.426582 -1.23334 -1.60433 -0.491229 0.265243 -5.80405 -0.258827 -0.0 0.0 0.0 -0.0 0.0 0.0 6.38274e-14 4.3606e-13 -2.58168e-14 79.919 19.4046 -5.0287 -17.4634 -10.1212 32.8274 -0.00790367 -2.53932 -0.357114 -7.42953e-10 2.83986e-09 -1.32575e-09 -1.28592e-09 4.90823e-09 -2.29607e-09 -7.42945e-10 2.83986e-09 -1.32576e-09 7.73091 5.47488 0.417314 -7.42954e-10 2.83986e-09 -1.32575e-09 2.90554 0.965183 0.102902 -7.42945e-10 2.83986e-09 -1.32575e-09 10.2786 0.731801 0.0259123 -7.42954e-10 2.83986e-09 -1.32574e-09 2.22167 -0.733487 -0.20892 6.36257e-14 4.36056e-13 -2.60004e-14 -82.3303 23.7315 -1.00982 12.7659 -6.00028 -23.1027 0.34611 16.5028 -2.38634 -2.18514e-09 1.44809e-11 2.11392e-09 -3.74819e-09 4.82422e-11 3.68346e-09 -2.18515e-09 1.44819e-11 2.11393e-09 -7.73091 5.47488 -0.417314 -2.18514e-09 1.448e-11 2.11393e-09 -2.90554 0.965183 -0.102902 -2.18515e-09 1.44787e-11 2.11392e-09 -10.2786 0.731801 -0.0259123 -2.18514e-09 1.44816e-11 2.11392e-09 -2.22167 -0.733487 0.20892 -2.03217e-16 0.0 -3.88251e-19 -15.6286 -52.6058 -14.6816 -0.522937 46.4096 0.592698 -2.47396 -8.20409 -8.1697 2.03217e-16 0.0 3.88251e-19 -7.45314 -15.0885 -3.85042 0.200913 30.5063 -0.478525 3.42198 -16.3649 7.51663
2.76126 82.8644 168.456 175.132 2.0126 -166.405 -3.57333 6.59099 -2.12468 4.71919 -4.67811 -0.441173 -1.21104 -1.67387 -0.452743 0.273305 -5.83129 -0.195368 -0.0 0.0 0.0 -0.0 0.0 0.0 1.23081e-13 2.95596e-13 1.09642e-15 79.9356 19.26 -5.10818 -17.3218 -9.9758 32.5157 -0.0068604 -2.36663 -0.332798 -1.08377e-09 2.00343e-09 -7.67835e-10 -1.87249e-09 3.4635e-09 -1.32926e-09 -1.08377e-09 2.00342e-09 -7.67847e-10 7.73091 5.47488 0.417314 -1.08377e-09 2.00342e-09 -7.67836e-10 2.90554 0.965183 0.102902 -1.08377e-09 2.00342e-09 -7.67839e-10 10.2786 0.731801 0.0259123 -1.08378e-09 2.00343e-09 -7.67828e-10 2.22167 -0.733487 -0.20892 1.22948e-13 2.95589e-13 8.44832e-16 -82.2951 23.2486 -0.999661 12.7116 -5.96023 -22.9961 0.35318 16.6651 -2.41119 -1.90756e-09 -5.34015e-10 4.69016e-10 -3.2904e-09 -9.09719e-10 8.37779e-10 -1.90756e-09 -5.3401e-10 4.69025e-10 -7.73091 5.47488 -0.417314 -1.90755e-09 -5.34011e-10 4.6902e-10 -2.90554 0.965183 -0.102902 -1.90756e-09 -5.34012e-10 4.69014e-10 -10.2786 0.731801 -0.0259123 -1.90755e-09 -5.34008e-10 4.69011e-10 -2.22167 -0.733487 0.20892 -2.03217e-16 0.0 -3.88251e-19 -15.2049 -52.8164 -14.1691 -0.477347 44.6906 0.509755 -2.18914 -7.35596 -7.60953 2.03217e-16 0.0 3.88251e-19 -7.41974 -14.6957 -3.79997 0.19781 30.01 -0.456079 3.3548 -16.0192 7.45421
